<svg id="Слой_1" data-name="Слой 1" xmlns="http://www.w3.org/2000/svg" viewBox="0 0 21.33 30.65"><defs><style>.cls-1{fill:#87cf00;}</style></defs><title>check</title><path class="cls-1" d="M0,8.17c1.17,1.34,2.26,2.73,3.32,4.15,0.54,0.7,1.05,1.42,1.56,2.14s1,1.44,1.51,2.18c1,1.48,1.95,3,2.83,4.5,0.45,0.77.89,1.55,1.31,2.34A24.92,24.92,0,0,1,11.7,26L9,26c0.78-2.28,1.59-4.54,2.48-6.77s1.84-4.44,2.81-6.64,2.05-4.35,3.22-6.47c0.28-.53.57-1.06,0.89-1.58L19.28,3l1-1.52c0.35-.5.7-1,1.07-1.47L19,6.79l-2.35,6.76L14.2,20.29c-0.81,2.24-1.66,4.47-2.49,6.7l-1.37,3.66L9,27c-0.28-.75-0.63-1.51-1-2.29s-0.72-1.56-1.11-2.34L4.55,17.7c-0.41-.77-0.77-1.57-1.17-2.36S2.6,13.77,2.23,13C1.46,11.39.71,9.8,0,8.17Z" transform="translate(0 0)"/></svg>