<svg id="Слой_1" data-name="Слой 1" xmlns="http://www.w3.org/2000/svg" viewBox="0 0 41.5 41.5"><defs><style>.cls-1{fill:#fff;}.cls-2{fill:#7b519b;}</style></defs><title>icon-viber</title><rect class="cls-1" width="41.5" height="41.5" rx="4.53" ry="4.53"/><path class="cls-2" d="M9.91,40.41A1.27,1.27,0,0,1,9,40a1.24,1.24,0,0,1-.35-0.9L8.81,32.3C6.93,31.76,1.9,29.62,1.06,22,0.12,13.55,1.85,7.89,3.77,5.42,5.51,3.2,10.45.8,17.16,0.8q0.9,0,1.86.06c7.8,0.49,15.16.95,16.78,9.59,1.59,8.44.4,16.29-2.89,19.11S25,33.61,17.76,33.61l-1.46,0L10.86,40A1.24,1.24,0,0,1,9.91,40.41Z" transform="translate(1.81 0.29)"/><path class="cls-1" d="M17.16,1.6Q18,1.6,19,1.66c7.79,0.49,14.54.92,16,8.93s0.44,15.73-2.62,18.35c-2.84,2.43-7.1,3.86-14.64,3.86l-1.82,0-5.69,6.66a0.44,0.44,0,0,1-.34.16,0.45,0.45,0,0,1-.45-0.46l0.17-7.48S2.83,30.74,1.86,22s1-14,2.55-16c1.45-1.86,6-4.31,12.76-4.31m0-1.6c-7,0-12.1,2.48-14,4.93S-0.7,13.4.27,22.13C1,28.87,5.08,31.91,8,32.91l-0.14,6.2a2,2,0,0,0,.58,1.48,2.07,2.07,0,0,0,1.47.62,2,2,0,0,0,1.56-.72l5.2-6.09h1.1c7.42,0,12.25-1.31,15.68-4.25S38.23,19,36.6,10.3C34.86,1,26.83.54,19.07,0.06,18.43,0,17.79,0,17.16,0h0Z" transform="translate(1.81 0.29)"/><path class="cls-1" d="M18.1,8.22a0.42,0.42,0,0,1,.41-0.3h0.84a6,6,0,0,1,1.09.15A8.4,8.4,0,0,1,24.18,10a9.16,9.16,0,0,1,2.2,2.78,8.46,8.46,0,0,1,.79,2.34,8,8,0,0,1,.11,1.33c0,0.15,0,.29,0,0.43a1.93,1.93,0,0,1,0,.36,0.39,0.39,0,0,1-.4.33,0.91,0.91,0,0,1-.2,0,0.39,0.39,0,0,1-.33-0.29,1.25,1.25,0,0,1-.05-0.33,8.65,8.65,0,0,0-.22-1.64,10.08,10.08,0,0,0-.52-1.79,6.67,6.67,0,0,0-1.71-2.52,6.85,6.85,0,0,0-2-1.24,11.25,11.25,0,0,0-2.14-.63C19.46,9,19.2,9,19,8.95l-0.47-.05a1,1,0,0,1-.21-0.05,0.34,0.34,0,0,1-.22-0.33A0.93,0.93,0,0,1,18.1,8.22Z" transform="translate(1.81 0.29)"/><path class="cls-1" d="M22.22,12.2A4.85,4.85,0,0,0,21,11.59a8.79,8.79,0,0,0-1.29-.36l-0.52-.09L19,11.1a0.41,0.41,0,0,1-.29-0.45,0.69,0.69,0,0,1,0-.22,0.44,0.44,0,0,1,.42-0.33,2.49,2.49,0,0,1,.47,0c0.28,0.05.57,0.08,0.85,0.15A5.87,5.87,0,0,1,23,11.59,5.61,5.61,0,0,1,24.8,14.2,4.87,4.87,0,0,1,25,15.8v0.4a0.41,0.41,0,0,1-.39.45,0.72,0.72,0,0,1-.25,0,0.34,0.34,0,0,1-.29-0.25A1.32,1.32,0,0,1,24,16.1a7.36,7.36,0,0,0-.56-2.32A3.52,3.52,0,0,0,22.22,12.2Z" transform="translate(1.81 0.29)"/><path class="cls-1" d="M22.88,15.26a1.42,1.42,0,0,1,0,.38,0.46,0.46,0,0,1-.41.33,0.45,0.45,0,0,1-.48-0.26,1.15,1.15,0,0,1-.09-0.35,3,3,0,0,0-.19-0.75,1.88,1.88,0,0,0-1.14-1.06,3.21,3.21,0,0,0-.64-0.16l-0.23-.07a0.37,0.37,0,0,1-.24-0.48A0.56,0.56,0,0,1,20,12.4a2.1,2.1,0,0,1,1.28.32,3.39,3.39,0,0,1,1.44,1.64A2.31,2.31,0,0,1,22.88,15.26Z" transform="translate(1.81 0.29)"/><path class="cls-1" d="M27.42,23.7a3.14,3.14,0,0,1-.47,1,4.75,4.75,0,0,1-2.05,1.71,3.12,3.12,0,0,1-1,.25,1.73,1.73,0,0,1-.44-0.06,5,5,0,0,1-1-.33,27.62,27.62,0,0,1-4.29-2.37,23.73,23.73,0,0,1-4.57-4,24,24,0,0,1-3.69-5.68c-0.22-.46-0.42-0.93-0.61-1.4A3.63,3.63,0,0,1,9,11.57a3,3,0,0,1,.8-2.23,3.87,3.87,0,0,1,1.35-.92,3,3,0,0,1,.76-0.24l0.24,0a1.47,1.47,0,0,1,1,.35,6.87,6.87,0,0,1,.87.87,14.81,14.81,0,0,1,1.63,2.31,5.09,5.09,0,0,1,.37.79,1.27,1.27,0,0,1-.31,1.41,2.63,2.63,0,0,1-.47.39c-0.13.1-.27,0.19-0.39,0.31a1.43,1.43,0,0,0-.49.87,1.78,1.78,0,0,0,.06.77,3.47,3.47,0,0,0,.26.67A8.2,8.2,0,0,0,17.22,20a9.34,9.34,0,0,0,2,1.14,1.91,1.91,0,0,0,.74.18,1.18,1.18,0,0,0,.92-0.39,3.4,3.4,0,0,0,.28-0.36,2.76,2.76,0,0,1,.67-0.68,1.54,1.54,0,0,1,.58-0.25,1.76,1.76,0,0,1,.81,0,3.22,3.22,0,0,1,.92.43L25,20.7c0.63,0.44,1.24.92,1.83,1.41a2.12,2.12,0,0,1,.33.35A1.39,1.39,0,0,1,27.42,23.7Z" transform="translate(1.81 0.29)"/></svg>