<svg id="Layer_3" data-name="Layer 3" xmlns="http://www.w3.org/2000/svg" viewBox="0 0 61.52 85.03"><defs><style>.cls-1,.cls-2,.cls-3{fill:#fff;}.cls-1,.cls-2,.cls-5{stroke:#f26522;stroke-miterlimit:10;}.cls-1{stroke-width:2.66px;opacity:0.57;}.cls-2{stroke-width:2.38px;}.cls-4{fill:#f26522;}.cls-5{fill:none;stroke-width:1.42px;}</style></defs><title>icon_cat_8</title><path class="cls-1" d="M633.73,927l0.88-44.21s-11.89-3.4-18.57-1-17.47,4.11-23,3-15.91-2-15.91-2-2.39,21.91-.88,29.14,1.51,39.72.88,43.21a30.87,30.87,0,0,0,0,8s22.8-2.42,27.41-1,28.29-1,28.29-1Z" transform="translate(-574.44 -879.62)"/><path class="cls-2" d="M608.71,890.41l-0.41,60.07L625.9,948a1.36,1.36,0,0,0,1-1.19l0.27-30.9,0-1.69,0.2-22.23a1,1,0,0,0-.92-1.11Z" transform="translate(-574.44 -879.62)"/><path class="cls-3" d="M626.59,927.95l-0.19,0a1.63,1.63,0,0,1-1.25-1.65s0-1.23-.06-3.65a1.57,1.57,0,0,0-.28,0,3.64,3.64,0,0,0-1,.16l-0.09,0-4.69.63h-0.14a1.48,1.48,0,0,1-1.08-.47,1.77,1.77,0,0,1-.46-1.32,1.91,1.91,0,0,1,1.55-1.84l4.28-.57a6.6,6.6,0,0,1,1.81-.28,3.42,3.42,0,0,1,2.35.79,3.33,3.33,0,0,1,1,2.51c0,2.51.06,3.72,0.06,3.74a1.94,1.94,0,0,1-1.44,1.92,1.53,1.53,0,0,1-.32,0h-0.1Z" transform="translate(-574.44 -879.62)"/><path class="cls-4" d="M625,920a2.49,2.49,0,0,1,1.68.54,2.35,2.35,0,0,1,.7,1.77c0,2.5.06,3.7,0.06,3.72a0.94,0.94,0,0,1-.63.93h-0.2a0.63,0.63,0,0,1-.44-0.66s0-1.21-.06-3.69a0.9,0.9,0,0,0-.27-0.7,1.55,1.55,0,0,0-1-.29,4.64,4.64,0,0,0-1.32.21l-4.52.61h-0.07a0.61,0.61,0,0,1-.53-0.72,0.91,0.91,0,0,1,.67-0.89l4.37-.58A5.58,5.58,0,0,1,625,920m0-2h0a7.48,7.48,0,0,0-2,.3l-4.21.56a2.93,2.93,0,0,0-2.43,2.8,2.8,2.8,0,0,0,.74,2.06,2.49,2.49,0,0,0,1.81.78l0.34,0,4.53-.61,0.19,0,0.15,0c0,1.66,0,2.49,0,2.54a2.64,2.64,0,0,0,2.07,2.64,2.51,2.51,0,0,0,.49,0,2.55,2.55,0,0,0,.53-0.06,2.93,2.93,0,0,0,2.24-2.92c0-.1,0-1.32-0.06-3.74A4.37,4.37,0,0,0,628,919a4.47,4.47,0,0,0-3-1h0Z" transform="translate(-574.44 -879.62)"/><path class="cls-3" d="M625.77,946.65a2.18,2.18,0,0,1-2-2.29l0-16.84a3.75,3.75,0,0,1,1-2.65,2.83,2.83,0,0,1,2-.86h0.63a3.42,3.42,0,0,1,3.07,3.6l0,16.84a2.37,2.37,0,0,1-.66,1.68,1.91,1.91,0,0,1-1.36.57Z" transform="translate(-574.44 -879.62)"/><path class="cls-4" d="M626.77,925h0.6a2.41,2.41,0,0,1,2.07,2.59l0,16.84a1.13,1.13,0,0,1-1,1.23h0l-2.65-.06a1.19,1.19,0,0,1-1-1.28l0-16.84a2.28,2.28,0,0,1,2-2.49m0-2a3.83,3.83,0,0,0-2.72,1.15,4.77,4.77,0,0,0-1.34,3.37l0,16.84a3.19,3.19,0,0,0,3,3.31l2.65,0.06h0.07a2.92,2.92,0,0,0,2.07-.87,3.39,3.39,0,0,0,1-2.39l0-16.84a4.38,4.38,0,0,0-4.05-4.61h-0.65Z" transform="translate(-574.44 -879.62)"/><path class="cls-5" d="M581.35,889.84s-0.88,5.27,0,7-0.35,7.25,0,7" transform="translate(-574.44 -879.62)"/><path class="cls-5" d="M588.39,890.85s0.13,5.95,0,8a36,36,0,0,0,0,4" transform="translate(-574.44 -879.62)"/><path class="cls-5" d="M584.37,905.92s-0.58,4.53,0,6" transform="translate(-574.44 -879.62)"/><path class="cls-5" d="M595.42,902.9c-0.07,1.74-.11,3.53,0,6s0.07,3.89,0,7" transform="translate(-574.44 -879.62)"/><path class="cls-5" d="M588.39,916s0,3.42,0,5-0.35,7.44,0,8" transform="translate(-574.44 -879.62)"/><path class="cls-5" d="M581.35,916a25.9,25.9,0,0,1,1,5c0.17,2.38-.29,4.6,0,6" transform="translate(-574.44 -879.62)"/><path class="cls-5" d="M591.4,904.91s0,2.82,0,4" transform="translate(-574.44 -879.62)"/><path class="cls-5" d="M594.42,884.82s-0.87,5.12,0,8a24.75,24.75,0,0,1,1,5" transform="translate(-574.44 -879.62)"/><path class="cls-5" d="M602.46,883.81a21.89,21.89,0,0,0,0,6" transform="translate(-574.44 -879.62)"/><path class="cls-5" d="M599.44,892.85s0.07,6,0,10,0,5,0,5" transform="translate(-574.44 -879.62)"/><path class="cls-5" d="M604.46,897.88s1.38,9.5,1,12.06,0.13,6,0,7" transform="translate(-574.44 -879.62)"/><path class="cls-5" d="M601.45,913s-0.55,10.48,0,13.06,0.34,7.65,0,8" transform="translate(-574.44 -879.62)"/><path class="cls-5" d="M593.41,924s-0.52,10.55,0,13.06" transform="translate(-574.44 -879.62)"/><path class="cls-5" d="M585.37,936.06s-1.71,6.83-1,10a28.07,28.07,0,0,1,0,8" transform="translate(-574.44 -879.62)"/><path class="cls-5" d="M598.44,939.08a62.87,62.87,0,0,0-1,11.05c0,5.67,0,6,0,6" transform="translate(-574.44 -879.62)"/><path class="cls-5" d="M604.46,941.09s0.78,9.76,0,14.07" transform="translate(-574.44 -879.62)"/><path class="cls-5" d="M612.5,953.14s0.08,2.43,0,5" transform="translate(-574.44 -879.62)"/><path class="cls-5" d="M618.53,962.19s0.08-1.89,0-6" transform="translate(-574.44 -879.62)"/><path class="cls-5" d="M591.4,951.13s-1.17,11.06,0,13.06" transform="translate(-574.44 -879.62)"/><path class="cls-5" d="M625.57,948.12" transform="translate(-574.44 -879.62)"/><path class="cls-5" d="M613.51,890.85a25.7,25.7,0,0,1-1-7" transform="translate(-574.44 -879.62)"/></svg>