<svg id="Слой_1" data-name="Слой 1" xmlns="http://www.w3.org/2000/svg" viewBox="0 0 223 196.83"><defs><style>.cls-1{fill:#29abe2;}</style></defs><title>icon_ok</title><path class="cls-1" d="M214.65,74.05c-6.76-5.41-14.37-8.82-23.38-8.64-10.32.22-20.65,0.07-31,0-1.74,0-3.47-.21-5.52-0.34,0.37-2.25.62-3.86,0.9-5.48,2.45-13.9,2.18-27.61-4-40.58-4.47-9.4-11.29-16.5-22-18.69-9.6-2-17.56,4.28-17,14,0.88,14.45-1.29,28.06-7.93,41-5.18,10.1-10.34,20.1-20,27.63-2.62-13.4-7.66-17.52-20.64-17.52q-22.5,0-45,0C6.49,65.49,0,71.91,0,84.43q0,46.72,0,93.47C0,190,6.77,196.76,18.9,196.8c15.16,0.05,30.32,0,45.48,0,11.63,0,16.64-3.68,19.91-14,5.25,1.43,10.44,4,15.66,4.08,28,0.41,56,.14,84,0.24,5.49,0,10.17-1.93,12.81-6.39,3.15-5.34,5.19-11.35,7.63-17.1,0.57-1.33.4-3.27,1.32-4.11,7.29-6.73,8.47-15.51,8.9-24.67a9,9,0,0,1,1.48-4.5c4.35-6.29,5.11-13.15,4.09-20.53a15.52,15.52,0,0,1,.71-7.09C225,91,223.11,80.82,214.65,74.05ZM75,177.91c0,7.11-2.18,9.33-9.17,9.34q-23.47.06-47,0c-7.51,0-9.64-2.23-9.64-10q0-23.22,0-46.45t0-46.46c0-7.22,2.38-9.67,9.51-9.7q23.47-.08,46.95,0c7,0,9.31,2.35,9.31,9.3Q75.06,131,75,177.91Zm137.3-79.73c-3.45,5.89-1.49,10.09-1.16,15.34,0.24,3.81-1.95,7.77-3.12,11.65-0.82,2.72-2.35,5.38-2.52,8.13-0.49,7.92-.65,15.71-8.3,20.84-1.16.78-1.33,3.17-1.75,4.86-0.88,3.52-1.26,7.21-2.52,10.58-2.17,5.8-6,8.85-12.93,8.56-4.81-.2-9.62-0.28-14.43-0.29s-9.62,0-14.44.08l-4.81,0h-4.81l-9.76,0c-9.75-.05-19.5-0.13-29.24.14-6.63.18-11.52-2.88-16-6.9a7.81,7.81,0,0,1-2-5.29q-0.2-33.73,0-67.49a6.87,6.87,0,0,1,2.24-5c13.81-9.69,21.39-23.76,28.35-38.54,5.93-12.59,7.76-25.59,6.87-39.28-0.35-5.48,2-7.22,7.33-5.84,6.25,1.59,10.24,6.06,13.16,11.5,6.51,12.09,6.27,25,4,38-0.49,2.77-1.29,5.5-2,8.24-1.21,4.91.45,7.11,5.84,7.14,13.5,0.09,27-.36,40.49.24a35,35,0,0,1,15,4.4C213.92,83.8,216.93,90.33,212.33,98.18Z" transform="translate(0.01)"/></svg>