<svg id="Layer_3" data-name="Layer 3" xmlns="http://www.w3.org/2000/svg" viewBox="0 0 123.3 83.19"><defs><style>.cls-1{opacity:0.42;}.cls-2{fill:#fff;}.cls-3{fill:#ee3524;}</style></defs><title>icon_cat_2</title><g class="cls-1"><path class="cls-2" d="M662.72,548.78c-1.9.27-9.15-1-13.14-1s-9.21.89-11.12,1-14.13-1.14-17.19-2-10.32.48-13.14,1-17.33-1.89-20.22-1-3,0-3,0l-3.14,3.94-8.89,10.45,32.85,21.41c-5.18,7.29-16.35,23.87-18.8,26.33-3,3-9.1,16.77-9.1,16.77s4.44,1.26,7.08,1,14.13,0.8,18.2,0,20,1.49,22.24-3,20.23-26,21.23-28.6,12.2-24.7,15.17-27.61,12.13-18.74,12.13-18.74S664.63,548.51,662.72,548.78Z" transform="translate(-550.54 -546.54)"/></g><path class="cls-2" d="M601.66,600.5a4.43,4.43,0,0,1-2.44-.73l-36.3-23.86a4.45,4.45,0,0,1-1.27-6.16l5.62-8.56a4.45,4.45,0,0,1,6.16-1.27l36.3,23.86a4.45,4.45,0,0,1,1.27,6.16l-5.62,8.56a4.44,4.44,0,0,1-3.72,2h0Z" transform="translate(-550.54 -546.54)"/><path class="cls-3" d="M571,560.6a3,3,0,0,1,1.66.5L609,585a3,3,0,0,1,.87,4.2l-5.62,8.56a3,3,0,0,1-4.2.87l-36.3-23.86a3,3,0,0,1-.87-4.2l5.62-8.56A3,3,0,0,1,571,560.6m0-2.83a5.85,5.85,0,0,0-4.91,2.64L560.46,569a5.87,5.87,0,0,0,1.68,8.12l36.3,23.86a5.87,5.87,0,0,0,8.12-1.68l5.62-8.56a5.87,5.87,0,0,0-1.68-8.12l-36.3-23.86a5.85,5.85,0,0,0-3.22-1h0Z" transform="translate(-550.54 -546.54)"/><path class="cls-2" d="M602.2,611.83a2.38,2.38,0,0,1-.78-0.13l-27-9.23-2.21,3.36-4.66-3.06,3.38-5.15a2.61,2.61,0,0,1,2.2-1.37,2.38,2.38,0,0,1,.78.13l27,9.23,5.53-8.42-1.14-.75,3.06-4.66,3.74,2.45a2.34,2.34,0,0,1,1.1,1.89,3,3,0,0,1-.54,1.76l-8.26,12.57a2.61,2.61,0,0,1-2.2,1.36h0Z" transform="translate(-550.54 -546.54)"/><path class="cls-3" d="M608.78,593.76l2.55,1.68a1.11,1.11,0,0,1,.15,1.68l-8.26,12.57a1.31,1.31,0,0,1-1,.73,1,1,0,0,1-.31-0.06l-28-9.58-2,3.1-2.29-1.5,2.6-4a1.31,1.31,0,0,1,1-.73,1,1,0,0,1,.31.06l28,9.58,6.92-10.52-1.14-.75,1.5-2.29M608,589.83l-1.56,2.37-1.5,2.29-1.56,2.37,1.14,0.75-4.15,6.32-25.94-8.87a3.78,3.78,0,0,0-1.23-.21,4,4,0,0,0-3.39,2l-2.6,4-1.56,2.37,2.37,1.56,2.29,1.5,2.37,1.56,1.56-2.37,0.83-1.26L601,613a3.78,3.78,0,0,0,1.23.21,4,4,0,0,0,3.39-2l8.26-12.57a3.9,3.9,0,0,0-1-5.61l-2.55-1.68L608,589.83h0Z" transform="translate(-550.54 -546.54)"/><path class="cls-2" d="M558,628.31a4.43,4.43,0,0,1-2.44-.73L554,626.51a4.46,4.46,0,0,1-1.27-6.16l11.12-16.92a4.45,4.45,0,0,1,6.16-1.27l1.62,1.07a4.45,4.45,0,0,1,1.27,6.16L561.74,626.3a4.44,4.44,0,0,1-3.72,2h0Z" transform="translate(-550.54 -546.54)"/><path class="cls-3" d="M567.53,602.84a3,3,0,0,1,1.66.5l1.62,1.07a3,3,0,0,1,.87,4.2l-11.12,16.92a3,3,0,0,1-4.2.87l-1.62-1.07a3,3,0,0,1-.87-4.2L565,604.21a3,3,0,0,1,2.54-1.37m0-2.83a5.85,5.85,0,0,0-4.91,2.65L551.5,619.57a5.87,5.87,0,0,0,1.68,8.12l1.62,1.07a5.87,5.87,0,0,0,8.12-1.68L574,610.16a5.87,5.87,0,0,0-1.68-8.12L570.74,601a5.85,5.85,0,0,0-3.22-1h0Z" transform="translate(-550.54 -546.54)"/></svg>