<svg id="Layer_3" data-name="Layer 3" xmlns="http://www.w3.org/2000/svg" viewBox="0 0 95.3 82.06"><defs><style>.cls-1,.cls-2{fill:#fff;}.cls-1{stroke:#d8aea4;stroke-miterlimit:10;stroke-width:3.48px;}</style></defs><title>icon_cat_9</title><polygon class="cls-1" points="49.98 15.38 57.05 43.15 24.11 43.15 18.5 21.13 33.47 12.49 45.43 5.59 47.22 4.56 47.42 5.33 49.98 15.38"/><polygon class="cls-1" points="66.09 43.15 35.22 43.15 33.47 12.49 33.17 7.18 45.43 5.59 47.42 5.33 51.01 4.87 59.04 3.84 63.81 3.22 63.91 4.92 66.09 43.15"/><polygon class="cls-1" points="81.71 8.85 78.36 43.15 47.26 43.15 49.98 15.38 51.01 4.87 51.27 2.12 59.04 3.84 63.91 4.92 81.71 8.85"/><rect class="cls-2" x="16.52" y="74.82" width="78.78" height="7.24"/><rect class="cls-2" x="16.52" y="63.96" width="78.78" height="7.24"/><rect class="cls-2" x="16.52" y="53.1" width="78.78" height="7.24"/><polygon class="cls-2" points="95.3 50.38 15.35 50.38 3.42 43.15 82.19 43.15 95.3 50.38"/><polygon class="cls-2" points="14.17 82.06 0 73.13 0 65.89 14.17 74.82 14.17 82.06"/><polygon class="cls-2" points="14.17 71.2 0 62.27 0 55.03 14.17 63.96 14.17 71.2"/><polygon class="cls-2" points="14.17 60.34 0 51.41 0 44.17 14.17 53.1 14.17 60.34"/></svg>