<svg id="Layer_3" data-name="Layer 3" xmlns="http://www.w3.org/2000/svg" viewBox="0 0 108.82 84.65"><defs><style>.cls-1,.cls-3{fill:#fff;}.cls-2{fill:none;stroke:#a7b6bf;stroke-miterlimit:10;stroke-width:2px;}.cls-3{opacity:0.56;}</style></defs><title>icon_cat_4</title><path class="cls-1" d="M299.33,751.16c3.55,6.88-.44.4-2.33-2.72s2.88,7.16,3.85,9.46a5.67,5.67,0,0,0,.52,1l-8.61,3.54c-1.28-2.33-4.45-8.22-5.64-11.2-1.5-3.78,1.62,7.17,3.22,10.95,0.17,0.4.32,0.75,0.45,1.06l-26.89,11.07c-0.53-1.34-1.72-4.33-3.22-7.9-2.05-4.88-5.64-16-2.93-7.21,2.19,7.12,4.11,13.51,4.76,15.69L254.61,778c-0.24-.58-0.66-1.6-1.42-3.42s-1.31-3.13-1.72-4.13c0.81,2.34,2,6.52,1.54,6.73s-1.34-2.54-2.14-5.27-3.28-10.34-1.72-4.24c1.23,4.83,2.12,9.74,2.44,11.58l-3.84,1.92c-1.84-.5-4.08-3.17-9.22-21.53l-0.38-1.3,60.76-25,0.64,1.2c4.12,8.09,11.94,17.29,14,19.42l-8.13,3.29c-0.5-.69-7.38-10.19-9.54-14.45C293.68,738.34,295.78,744.29,299.33,751.16Z" transform="translate(-233.55 -706.13)"/><path class="cls-1" d="M300.17,733l-6.89-11.77a3,3,0,0,0-3.75-1.26l-17.34,7.14c-2.51.26-7.73,0.24-8.7-4.21-1.29-5.9-1.22-20.06-11-16s0.24,14,3.48,19.14c2.44,3.84-1.24,7.52-3.21,9.1l-17.35,7.14a3,3,0,0,0-1.77,3.53L237,759a1.08,1.08,0,0,0,1.46.73l61.15-25.17A1.08,1.08,0,0,0,300.17,733Zm-44.85-19.11a2.25,2.25,0,1,1,1.22-2.93A2.25,2.25,0,0,1,255.32,713.87Z" transform="translate(-233.55 -706.13)"/><line class="cls-2" x1="2.74" y1="54.42" x2="68.63" y2="27.29"/><path class="cls-3" d="M245.49,783.42l6.81-2.27c3.52-1.17,7.7-4.3,12.48-5.67s11.85-3.77,14.75-5.67,10.12-4.44,12.48-5.67,18.67-7,20.43-6.81,3.92,0,7.94,3.4,9.07,6.64,12.48,7.94,7.8,3.77,9.08,5.67-0.34,2.77-4.54,1.13-1,2,2.27,4.54-13.31-2.51-22.7-7.94,5.26,5.71,6.81,6.81-2.62,2.91-7.94,1.13-10.44-2.5-13.62-2.27,7.19,7.52,13.62,10.21-4.83,2.51-10.21-1.13-14.65-3.83-17-3.4-1,2.51,1.13,4.54-3,2-6.81,0-10.12.64-10.21,2.27-8.46-1.09-11.35,0-13,.64-14.75-2.27S245.49,783.42,245.49,783.42Z" transform="translate(-233.55 -706.13)"/></svg>