<svg id="Layer_3" data-name="Layer 3" xmlns="http://www.w3.org/2000/svg" viewBox="0 0 80.92 80.92"><defs><style>.cls-1,.cls-2{fill:#fff;}.cls-2{opacity:0.54;}</style></defs><title>icon_cat_1</title><path class="cls-1" d="M281.11,582.29s-18-19.07-2.36-40.46c0,0-31,5.46-34.68,27.15C239.22,597.57,273.15,589.19,281.11,582.29Z" transform="translate(-240.65 -541.83)"/><path class="cls-2" d="M281.11,582.29s19.07-18,40.46-2.36c0,0-5.46-31-27.15-34.68C265.83,540.39,274.21,574.32,281.11,582.29Z" transform="translate(-240.65 -541.83)"/><path class="cls-1" d="M281.11,582.29s18,19.07,2.36,40.46c0,0,31-5.46,34.68-27.15C323,567,289.08,575.39,281.11,582.29Z" transform="translate(-240.65 -541.83)"/><path class="cls-2" d="M281.11,582.29s-19.07,18-40.46,2.36c0,0,5.46,31,27.15,34.68C296.4,624.19,288,590.26,281.11,582.29Z" transform="translate(-240.65 -541.83)"/></svg>