<svg id="Layer_3" data-name="Layer 3" xmlns="http://www.w3.org/2000/svg" viewBox="0 0 100.65 82.28"><defs><style>.cls-1,.cls-3{fill:#fff;}.cls-1{stroke:#fff;stroke-width:3.92px;}.cls-1,.cls-4,.cls-5{stroke-miterlimit:10;}.cls-2,.cls-5{fill:#967f2f;}.cls-4{fill:none;stroke-width:2.03px;}.cls-4,.cls-5{stroke:#967f2f;stroke-linecap:round;}.cls-5{stroke-width:2.34px;}</style></defs><title>icon_cat_7</title><path class="cls-1" d="M247.67,946.3c-4,1-14.88-33.49-11.75-35L283,891c-4.39,2,10.48,44.17,14.46,43Z" transform="translate(-233.4 -887.85)"/><path class="cls-2" d="M297.93,934.8c-4.16,0-11-20.19-11.28-21.05-0.77-2.29-7.41-22.44-3.28-23.82a1.52,1.52,0,0,1,.48-0.08c4.16,0,11,20.19,11.28,21.05a110.52,110.52,0,0,1,4.16,15.69c1.12,6.54.18,7.78-.88,8.14A1.52,1.52,0,0,1,297.93,934.8Z" transform="translate(-233.4 -887.85)"/><path class="cls-3" d="M283.85,890.77c2,0,6.54,8.92,10.4,20.42,4,11.89,5.72,22,3.87,22.65a0.59,0.59,0,0,1-.19,0c-2,0-6.54-8.92-10.4-20.42-4-11.89-5.72-22-3.87-22.65a0.59,0.59,0,0,1,.19,0m0-1.85h0a2.44,2.44,0,0,0-.78.13c-2.06.69-2.49,3.35-1.5,9.17a111.43,111.43,0,0,0,4.2,15.83,113.68,113.68,0,0,0,6,14.78c3.1,6.07,4.78,6.91,6.14,6.91a2.44,2.44,0,0,0,.78-0.13c2.06-.69,2.49-3.35,1.5-9.17A111.43,111.43,0,0,0,296,910.6a113.69,113.69,0,0,0-6-14.78c-3.1-6.07-4.78-6.91-6.14-6.91h0Z" transform="translate(-233.4 -887.85)"/><path class="cls-4" d="M281.52,888.86c-14.19,5.53,3.75,51.78,16.29,48.48" transform="translate(-233.4 -887.85)"/><rect class="cls-5" x="274.23" y="916.09" width="11.35" height="2.84" rx="1.42" ry="1.42" transform="translate(827.1 -527.87) rotate(71.43)"/><path class="cls-3" d="M288.74,933.51s1.35,2.86,3.4,3.64,3.16,2.78,3.09,5.44,0.32,3.35,1.3,3.89,1.92-2.5,1.3-7.79-2.83-6.54-3.89-6.49-0.16.52-1.3,1.3S290.16,933,288.74,933.51Z" transform="translate(-233.4 -887.85)"/><path class="cls-3" d="M298.9,948.77s-15.38-3.33-18.55,0,1.15,2.6,5.3,5.3-14.3,1.35-21.2,5.3,20.64,3.38,23.85,5.3,1,5.26,8,5.3,22.53,1,26.51-2.65-3.67-4.88-5.3-5.3-2.73-2.23,8-2.65,10.21-4.11,5.3-5.3-11-.52-13.25-2.65-4.77-5.51-10.6-5.3,0.38,2.13-2.65,2.65A14.77,14.77,0,0,1,298.9,948.77Z" transform="translate(-233.4 -887.85)"/></svg>