<svg id="Layer_3" data-name="Layer 3" xmlns="http://www.w3.org/2000/svg" viewBox="0 0 86.29 68.79"><defs><style>.cls-1{fill:#fff;}.cls-2{fill:none;stroke:#fff;stroke-linecap:round;stroke-linejoin:round;stroke-width:2.83px;}</style></defs><title>icon_cat_6</title><path class="cls-1" d="M897.44,789.15l12.93-28.73s7.39-11.42,21.49-13,12.81,0.36,16.12,2.3,7.53,4,8.44,4.61a8.73,8.73,0,0,1,2.3,10.75c-2.74,6.08-10.09,10.35-12.28,11.51-1.92,1-38.61,11.4-47.81,14A1,1,0,0,1,897.44,789.15Z" transform="translate(-897.35 -721.79)"/><path class="cls-2" d="M941.39,758.66l5.78-4.06a5.5,5.5,0,0,0,2.69-4.13c0.53-3.13-1.47-8,3.44-10.69s12.91-6.29,12.91-6.29" transform="translate(-897.35 -721.79)"/><path class="cls-1" d="M958.77,740.41a4.41,4.41,0,0,1-1.45-8.33l20-9.83a4.41,4.41,0,1,1,3.89,7.9l-20,9.83A4.38,4.38,0,0,1,958.77,740.41Z" transform="translate(-897.35 -721.79)"/></svg>