<svg id="Слой_1" data-name="Слой 1" xmlns="http://www.w3.org/2000/svg" viewBox="0 0 41.5 41.5"><defs><style>.cls-1{fill:#fff;}</style></defs><title>icon_fb</title><path class="cls-1" d="M41.5,3.92V37.57a3.93,3.93,0,0,1-3.93,3.93H28.88a0.25,0.25,0,0,0,0-.08V25.74h5.76A0.77,0.77,0,0,0,35.43,25V18.76a0.77,0.77,0,0,0-.23-0.54A0.73,0.73,0,0,0,34.66,18H28.89V14.35c0-1.74.42-2.63,2.69-2.63h3.3a0.77,0.77,0,0,0,.77-0.77V5.18a0.77,0.77,0,0,0-.77-0.77H30c-5.51,0-9.07,3.65-9.07,9.31V18H16a0.77,0.77,0,0,0-.77.77V25a0.77,0.77,0,0,0,.77.77h4.92V41.42a0.25,0.25,0,0,0,0,.08h-17A3.93,3.93,0,0,1,0,37.57V3.92A3.92,3.92,0,0,1,3.93,0H37.57A3.92,3.92,0,0,1,41.5,3.92Z"/></svg>