<svg id="Слой_1" data-name="Слой 1" xmlns="http://www.w3.org/2000/svg" viewBox="0 0 21.91 20"><defs><style>.cls-1{fill:#fff;}</style></defs><title>icon-cart</title><path class="cls-1" d="M0.46,3.47A2.17,2.17,0,0,1,2.08,2.7H15.59A2.15,2.15,0,0,1,16.67,3l0.69-2.36A1,1,0,0,1,18.24,0H21.3a0.73,0.73,0,0,1,.61.79V0.86a0.69,0.69,0,0,1-.61.76H18.67L17.33,6.14l-1.85,6.28a2.34,2.34,0,0,1,1.83,2.24A2.36,2.36,0,0,1,15.05,17a2.2,2.2,0,0,1,.13.93A2.33,2.33,0,0,1,13,20a2.42,2.42,0,0,1-2.53-2.38,5.5,5.5,0,0,1,.13-0.86H7.83A3.14,3.14,0,0,1,8,17.88a2.39,2.39,0,0,1-2.18,2.06,2.16,2.16,0,1,1-.13-4.27h9.23a0.84,0.84,0,0,0,.85-0.78,0.82,0.82,0,0,0-.83-0.84h-11a2.12,2.12,0,0,1-2-1.59L0.06,5.27a2,2,0,0,1,.4-1.8h0ZM5.6,17a0.75,0.75,0,1,0,.78.75A0.77,0.77,0,0,0,5.6,17h0Zm7.22,0a0.75,0.75,0,1,0,.78.75A0.77,0.77,0,0,0,12.82,17h0Zm2.6-10.89,0.48-1.2a0.44,0.44,0,0,0,0-.39,0.32,0.32,0,0,0-.3-0.18H14.11l-0.4,1.62h1.71V6.09ZM15.23,7.57H13.36L13,9.19h1.77Zm-2,4.76c0.54,0,.51-0.11.57-0.31l0.49-1.21H12.64l-0.35,1.62h1v-0.1Zm-3.71.1h1.12L11,10.81H9.47v1.62H9.55ZM9.47,9.19h1.9l0.37-1.62H9.47V9.19Zm0-3.24h2.61l0.4-1.62h-3V5.95ZM6.71,12.43H7.85V10.81H6.38ZM6,9.19H7.85V7.57H5.68ZM7.85,5.95V4.32H5L5.35,5.95h2.5ZM3.43,12.06a0.49,0.49,0,0,0,.45.38H5.1L4.75,10.81H3.12ZM2.73,9.19h1.7L4.06,7.57H2.3ZM1.6,4.8L1.91,5.95H3.73L3.35,4.32H2a0.44,0.44,0,0,0-.36.13,0.34,0.34,0,0,0-.09.34h0Zm0,0.07"/></svg>