<svg id="Layer_3" data-name="Layer 3" xmlns="http://www.w3.org/2000/svg" viewBox="0 0 169.62 75.81"><defs><style>.cls-1{fill:#fff;}.cls-2{fill:#0db14b;stroke:#0db14b;stroke-miterlimit:10;stroke-width:1.03px;}</style></defs><title>icon_cat_3</title><rect class="cls-1" x="841.24" y="584.96" width="165.16" height="23.42" transform="matrix(0.99, 0.16, -0.16, 0.99, -733.41, -685.32)"/><path class="cls-1" d="M999.19,583.51l-56.52-9.13c-4-1.75-8-4.55-6.39-7.71,2.92-5.79,15-17.53-4.28-20.65s-11.51,11.84-10.56,18.25c0.52,3.51-4.16,4.9-8.49,5.31l-56.51-9.13a12.92,12.92,0,0,0-14.81,10.69l-0.27,1.7L1009.61,600l0.27-1.7A12.92,12.92,0,0,0,999.19,583.51Z" transform="translate(-840.43 -545.59)"/><line class="cls-2" x1="2.73" y1="27.87" x2="167.32" y2="54.47"/><rect class="cls-2" x="924.84" y="503.92" width="1.06" height="166.73" transform="translate(-642.45 861.52) rotate(-80.82)"/></svg>