<svg id="Слой_1" data-name="Слой 1" xmlns="http://www.w3.org/2000/svg" viewBox="0 0 42.73 42.73"><defs><style>.cls-1{fill:#fff;}.cls-2{fill:red;}</style></defs><title>icon_you</title><path class="cls-1" d="M21.36,0A21.36,21.36,0,1,0,42.73,21.36,21.36,21.36,0,0,0,21.36,0h0Z"/><path class="cls-2" d="M32.86,32.81a3,3,0,0,1-2.58,2.34,80.35,80.35,0,0,1-8.93.33,80.36,80.36,0,0,1-8.93-.33,3,3,0,0,1-2.58-2.34,25.58,25.58,0,0,1-.41-5.63,25.46,25.46,0,0,1,.42-5.63,3,3,0,0,1,2.57-2.34,80.23,80.23,0,0,1,8.92-.33,80.21,80.21,0,0,1,8.93.33,3,3,0,0,1,2.58,2.34,25.59,25.59,0,0,1,.41,5.63,25.45,25.45,0,0,1-.42,5.63h0Z"/><path d="M23.74,10h1.45v5.91a3.41,3.41,0,0,0,0,.57,0.33,0.33,0,0,0,.34.34,1.28,1.28,0,0,0,.92-0.68V10h1.46v8H26.47V17.15a2.34,2.34,0,0,1-1.66,1,0.9,0.9,0,0,1-.94-0.6,4.11,4.11,0,0,1-.13-1.2V10Z"/><path d="M18.24,12.61a3.13,3.13,0,0,1,.45-1.89,2.16,2.16,0,0,1,3.39,0,3.16,3.16,0,0,1,.45,1.89v2.81a3.15,3.15,0,0,1-.45,1.89,2.16,2.16,0,0,1-3.39,0,3.11,3.11,0,0,1-.45-1.89V12.61Z"/><path d="M14.35,7.25l1.15,4.23,1.1-4.23h1.63l-1.94,6.41V18H14.67V13.66a26.67,26.67,0,0,0-1-3.41c-0.34-1-.69-2-1-3h1.7Z"/><path class="cls-1" d="M20.39,16.81c0.47,0,.69-0.37.69-1.12V12.32c0-.74-0.23-1.11-0.69-1.11s-0.7.37-.7,1.11V15.7c0,0.75.23,1.12,0.7,1.12h0Zm0,0"/><path class="cls-1" d="M11.22,22.94h1.69v9.17h1.6V22.94h1.72v-1.5h-5v1.5Zm0,0"/><path class="cls-1" d="M24.77,24.06a2,2,0,0,0-1.49.86V21.44H21.84V32.11h1.44V31.34a2,2,0,0,0,1.49.88,1.14,1.14,0,0,0,1.15-.89,6.35,6.35,0,0,0,.15-1.6V26.56a6.14,6.14,0,0,0-.15-1.6,1.14,1.14,0,0,0-1.15-.9h0Zm-0.15,5.78c0,0.72-.21,1.07-0.63,1.07a1,1,0,0,1-.72-0.35V25.71A1,1,0,0,1,24,25.36c0.41,0,.63.37,0.63,1.08v3.39Zm0,0"/><path class="cls-1" d="M19.16,30.23a1.26,1.26,0,0,1-.91.67,0.33,0.33,0,0,1-.34-0.34,4.64,4.64,0,0,1,0-.56V24.16H16.45v6.29a4,4,0,0,0,.13,1.18,0.89,0.89,0,0,0,.93.59,2.31,2.31,0,0,0,1.65-1v0.87H20.6v-8H19.16v6.07Zm0,0"/><path class="cls-1" d="M29.36,24.06a2,2,0,0,0-1.72.82,3.11,3.11,0,0,0-.44,1.87v2.79a3.08,3.08,0,0,0,.46,1.87,2.06,2.06,0,0,0,1.74.82,2,2,0,0,0,1.74-.86,2,2,0,0,0,.34-0.86c0-.15,0-0.46,0-0.93V29.35H30a9.2,9.2,0,0,1,0,1,0.62,0.62,0,0,1-.64.58c-0.49,0-.74-0.37-0.74-1.1V28.39H31.5V26.75a3.13,3.13,0,0,0-.45-1.87,2,2,0,0,0-1.7-.82h0Zm0.71,3.14H28.62V26.46q0-1.1.72-1.1c0.48,0,.72.37,0.72,1.1v0.73Zm0,0"/></svg>