<svg id="Слой_1" data-name="Слой 1" xmlns="http://www.w3.org/2000/svg" xmlns:xlink="http://www.w3.org/1999/xlink" viewBox="0 0 33.75 30.27"><defs><style>.cls-1{fill:url(#Безымянный_градиент_90);}.cls-2{fill:#fff;}</style><linearGradient id="Безымянный_градиент_90" x1="16.88" y1="30.27" x2="16.88" gradientUnits="userSpaceOnUse"><stop offset="0" stop-color="#0db14b"/><stop offset="0.01" stop-color="#13b24a"/><stop offset="0.08" stop-color="#33b747"/><stop offset="0.15" stop-color="#4fbc45"/><stop offset="0.23" stop-color="#66c043"/><stop offset="0.32" stop-color="#77c341"/><stop offset="0.44" stop-color="#83c540"/><stop offset="0.6" stop-color="#8ac63f"/><stop offset="1" stop-color="#8cc63f"/></linearGradient></defs><title>icon-phone</title><rect class="cls-1" width="33.75" height="30.27" rx="4.45" ry="4.45"/><path id="_Контур_" data-name="&lt;Контур&gt;" class="cls-2" d="M12.24,12.92s1.83-1.31,1.46-3-0.79-3-.79-3S11.3,4.41,9.21,5.8L7.6,7.37s-1,.79.19,5.36a15.62,15.62,0,0,0,6.84,9.48,17.59,17.59,0,0,0,7.85,2.66,3.45,3.45,0,0,0,2.24-.52c0.75-.67,1.53-1.46,1.53-1.46a2.77,2.77,0,0,0-1.16-3.71l-2.88-.86a3.11,3.11,0,0,0-2.28.71l-0.86.86a9.15,9.15,0,0,1-4.3-2.43A8.94,8.94,0,0,1,12.24,12.92Z"/></svg>