<svg id="Слой_1" data-name="Слой 1" xmlns="http://www.w3.org/2000/svg" viewBox="0 0 224.42 177.5"><defs><style>.cls-1,.cls-2{fill:none;stroke-miterlimit:10;}.cls-1{stroke:#b3b3b3;}.cls-2{stroke:#005baa;stroke-dasharray:6 6;}.cls-3{fill:#005baa;}</style></defs><title>room</title><rect class="cls-1" x="36.15" y="43.89" width="110.58" height="86.78"/><polygon class="cls-1" points="146.73 43.89 36.15 43.89 8.94 0.5 162.59 0.5 146.73 43.89"/><polygon class="cls-1" points="98.8 43.89 84.08 43.89 79.12 18.71 97.17 18.71 98.8 43.89"/><polygon class="cls-1" points="146.73 130.67 36.15 130.67 8.94 174.06 163.04 174.06 146.73 130.67"/><polygon class="cls-1" points="61.06 159.73 43.88 159.73 52.82 139.45 67.5 139.45 61.06 159.73"/><polygon class="cls-1" points="131.69 159.73 114.52 159.73 113.17 139.45 127.85 139.45 131.69 159.73"/><polygon class="cls-1" points="193.03 148.56 146.73 130.67 146.73 44.55 193.03 54.28 193.03 148.56"/><polygon class="cls-1" points="193.03 147.5 223.92 176.34 223.09 72.67 193.03 54.28 193.03 147.5"/><polygon class="cls-1" points="36.15 130.67 0.5 148.56 0.5 26.66 36.15 44.55 36.15 130.67"/><polygon class="cls-1" points="31.78 95.59 15 97.07 15 78.15 31.78 79.63 31.78 95.59"/><line class="cls-2" x1="42.49" y1="64.85" x2="140.49" y2="64.85"/><path class="cls-3" d="M404.66,255.39a30.22,30.22,0,0,1,8.55,4.76l-1.72-4.76,1.72-4.75A30.2,30.2,0,0,1,404.66,255.39Z" transform="translate(-368.51 -190.65)"/><path class="cls-3" d="M515.24,255.39a30.22,30.22,0,0,0-8.55,4.76l1.72-4.76-1.72-4.75A30.2,30.2,0,0,0,515.24,255.39Z" transform="translate(-368.51 -190.65)"/><line class="cls-2" x1="59.99" y1="124.35" x2="59.99" y2="51.35"/><path class="cls-3" d="M428.22,321.32a30.22,30.22,0,0,1,4.76-8.55l-4.76,1.72-4.75-1.72A30.2,30.2,0,0,1,428.22,321.32Z" transform="translate(-368.51 -190.65)"/><path class="cls-3" d="M428.22,235.63a30.22,30.22,0,0,0,4.76,8.55l-4.76-1.72-4.75,1.72A30.2,30.2,0,0,0,428.22,235.63Z" transform="translate(-368.51 -190.65)"/><line class="cls-2" x1="46.11" y1="38.01" x2="38.88" y2="7.04"/><path class="cls-3" d="M416,234.54a30.22,30.22,0,0,1,2.69-9.4l-4.24,2.76-5-.59A30.2,30.2,0,0,1,416,234.54Z" transform="translate(-368.51 -190.65)"/><path class="cls-3" d="M406,191.81a30.22,30.22,0,0,0,6.57,7.24l-5-.59-4.24,2.76A30.2,30.2,0,0,0,406,191.81Z" transform="translate(-368.51 -190.65)"/><line class="cls-2" x1="152.58" y1="66.2" x2="187.17" y2="74.87"/><path class="cls-3" d="M515.24,255.39a30.22,30.22,0,0,1,7.13,6.69l-0.51-5,2.82-4.19A30.2,30.2,0,0,1,515.24,255.39Z" transform="translate(-368.51 -190.65)"/><path class="cls-3" d="M561.53,267a30.22,30.22,0,0,0-9.45,2.53l2.83-4.19-0.51-5A30.2,30.2,0,0,0,561.53,267Z" transform="translate(-368.51 -190.65)"/><line class="cls-2" x1="198.08" y1="79.65" x2="218.87" y2="93.25"/><path class="cls-3" d="M561.53,267a30.22,30.22,0,0,1,4.55,8.66l1.16-4.92,4-3A30.2,30.2,0,0,1,561.53,267Z" transform="translate(-368.51 -190.65)"/><path class="cls-3" d="M592.42,287.21a30.22,30.22,0,0,0-9.76-.7l4-3,1.16-4.92A30.2,30.2,0,0,0,592.42,287.21Z" transform="translate(-368.51 -190.65)"/></svg>